# 3ds Max Wavefront OBJ Exporter v0.97b - (c)2007 guruware
# File Created: 05.12.2018 14:56:24

mtllib gun.mtl

#
# object Box003
#

v  -0.0036 -0.0007 0.0095
v  0.0036 -0.0007 0.0095
v  0.0036 -0.0052 0.0095
v  -0.0036 -0.0052 0.0095
v  0.0036 -0.0052 0.0131
v  0.0036 -0.0007 0.0131
v  -0.0036 -0.0007 0.0131
v  -0.0036 -0.0052 0.0131
v  0.0013 0.0060 0.0095
v  -0.0013 0.0060 0.0095
v  -0.0013 0.0060 0.0131
v  0.0013 0.0060 0.0131
v  -0.0051 -0.0097 0.0131
v  0.0051 -0.0097 0.0131
v  0.0051 -0.0097 0.0175
v  -0.0051 -0.0097 0.0175
v  0.0051 0.0025 0.0175
v  0.0051 0.0025 0.0131
v  -0.0051 0.0025 0.0131
v  -0.0051 0.0025 0.0175
v  0.0051 -0.0097 -0.0186
v  -0.0051 -0.0097 -0.0186
v  -0.0051 0.0025 -0.0186
v  0.0051 0.0025 -0.0186
v  -0.0030 -0.0285 -0.0238
v  0.0030 -0.0285 -0.0238
v  0.0030 -0.0324 -0.0258
v  -0.0030 -0.0324 -0.0258
v  0.0030 -0.0381 -0.0151
v  0.0030 -0.0342 -0.0130
v  -0.0030 -0.0342 -0.0130
v  -0.0030 -0.0381 -0.0151
v  0.0030 -0.0005 -0.0089
v  -0.0030 -0.0005 -0.0089
v  -0.0030 -0.0062 0.0018
v  0.0030 -0.0062 0.0018
v  -0.0036 -0.0007 -0.0192
v  0.0036 -0.0007 -0.0192
v  0.0036 -0.0052 -0.0192
v  -0.0036 -0.0052 -0.0192
v  0.0036 -0.0052 -0.0156
v  0.0036 -0.0007 -0.0156
v  -0.0036 -0.0007 -0.0156
v  -0.0036 -0.0052 -0.0156
v  0.0013 0.0060 -0.0192
v  -0.0013 0.0060 -0.0192
v  -0.0013 0.0060 -0.0156
v  0.0013 0.0060 -0.0156
v  -0.0036 -0.0055 0.0190
v  0.0036 -0.0055 0.0190
v  0.0036 -0.0055 0.0235
v  -0.0036 -0.0055 0.0235
v  0.0036 0.0009 0.0235
v  0.0036 0.0009 0.0190
v  -0.0036 0.0009 0.0190
v  -0.0036 0.0009 0.0235
v  0.0036 -0.0055 0.0123
v  -0.0036 -0.0055 0.0123
v  -0.0036 0.0009 0.0123
v  0.0036 0.0009 0.0123
# 60 vertices

vn -0.0000 0.0000 -1.0000
vn 0.0000 -0.0000 -1.0000
vn 0.0000 0.0000 1.0000
vn 0.0000 -0.0000 1.0000
vn 0.0000 -1.0000 0.0000
vn 0.9865 0.1635 -0.0000
vn 1.0000 -0.0000 -0.0000
vn -0.0000 1.0000 -0.0000
vn -0.9865 0.1635 0.0000
vn -0.9465 0.3227 0.0000
vn 0.9465 0.3226 -0.0000
vn -1.0000 0.0000 0.0000
vn 0.0000 1.0000 -0.0000
vn 1.0000 -0.0000 0.0000
vn -0.0000 -0.0000 -1.0000
vn -1.0000 0.0000 -0.0000
vn 0.0000 -1.0000 -0.0000
vn 0.0000 0.4696 -0.8829
vn -0.0000 -0.4696 0.8829
vn 0.0000 -0.8829 -0.4696
vn -0.0000 0.8829 0.4696
# 21 vertex normals

vt 1.0000 0.5000 0.0000
vt 0.0000 0.5000 0.0000
vt 0.0000 0.0000 0.0000
vt 1.0000 0.0000 0.0000
vt 1.0000 1.0000 0.0000
vt 0.0000 1.0000 0.0000
vt 0.5000 0.0000 0.0000
vt 0.5000 1.0000 0.0000
# 8 texture coords

g Box003
usemtl _uziGoldGold
s 2
f 1/1/1 2/2/1 3/3/2 4/4/2 
s 4
f 5/4/3 6/1/4 7/2/4 8/3/3 
s 8
f 4/3/5 3/4/5 5/5/5 8/6/5 
s 16
f 2/7/6 6/8/6 5/6/7 3/3/7 
s 32
f 9/3/8 10/4/8 11/5/8 12/6/8 
s 64
f 1/7/9 7/8/9 11/6/10 10/3/10 
s 2
f 10/5/1 9/6/1 2/2/1 1/1/1 
s 4
f 12/5/4 11/6/4 7/2/4 6/1/4 
s 16
f 9/4/11 12/5/11 6/8/6 2/7/6 
s 64
f 4/4/12 8/5/12 7/8/9 1/7/9 
usemtl _uziGoldGray8
s 2
f 13/1/5 14/2/5 15/3/5 16/4/5 
s 4
f 17/4/13 18/1/13 19/2/13 20/3/13 
s 8
f 16/3/3 15/4/3 17/5/3 20/6/3 
s 16
f 14/7/14 18/8/14 17/6/14 15/3/14 
s 32
f 21/3/15 22/4/15 23/5/15 24/6/15 
s 64
f 13/7/16 19/8/16 23/6/16 22/3/16 
s 2
f 22/5/17 21/6/17 14/2/5 13/1/5 
s 4
f 24/5/13 23/6/13 19/2/13 18/1/13 
s 16
f 21/4/14 24/5/14 18/8/14 14/7/14 
s 64
f 16/4/16 20/5/16 19/8/16 13/7/16 
usemtl _uziGoldGold
s 2
f 25/1/18 26/2/18 27/3/18 28/4/18 
s 4
f 29/4/19 30/1/19 31/2/19 32/3/19 
s 8
f 28/3/20 27/4/20 29/5/20 32/6/20 
s 16
f 26/7/7 30/8/7 29/6/7 27/3/7 
s 32
f 33/3/21 34/4/21 35/5/21 36/6/21 
s 64
f 25/7/12 31/8/12 35/6/12 34/3/12 
s 2
f 34/5/18 33/6/18 26/2/18 25/1/18 
s 4
f 36/5/19 35/6/19 31/2/19 30/1/19 
s 16
f 33/4/7 36/5/7 30/8/7 26/7/7 
s 64
f 28/4/12 32/5/12 31/8/12 25/7/12 
s 2
f 37/1/1 38/2/1 39/3/2 40/4/2 
s 4
f 41/4/3 42/1/4 43/2/4 44/3/3 
s 8
f 40/3/5 39/4/5 41/5/5 44/6/5 
s 16
f 38/7/6 42/8/6 41/6/7 39/3/7 
s 32
f 45/3/8 46/4/8 47/5/8 48/6/8 
s 64
f 37/7/9 43/8/9 47/6/10 46/3/10 
s 2
f 46/5/1 45/6/1 38/2/1 37/1/1 
s 4
f 48/5/4 47/6/4 43/2/4 42/1/4 
s 16
f 45/4/11 48/5/11 42/8/6 38/7/6 
s 64
f 40/4/12 44/5/12 43/8/9 37/7/9 
s 2
f 49/1/5 50/2/5 51/3/5 52/4/5 
s 4
f 53/4/13 54/1/13 55/2/13 56/3/13 
s 8
f 52/3/3 51/4/3 53/5/3 56/6/3 
s 16
f 50/7/14 54/8/14 53/6/14 51/3/14 
s 32
f 57/3/15 58/4/15 59/5/15 60/6/15 
s 64
f 49/7/16 55/8/16 59/6/16 58/3/16 
s 2
f 58/5/5 57/6/5 50/2/5 49/1/5 
s 4
f 60/5/13 59/6/13 55/2/13 54/1/13 
s 16
f 57/4/14 60/5/14 54/8/14 50/7/14 
s 64
f 52/4/16 56/5/16 55/8/16 49/7/16 
# 50 polygons

